<svg xmlns="http://www.w3.org/2000/svg" width="17" height="16" viewBox="0 0 17 16">
    <path fill="#FFF" fill-rule="evenodd" d="M11.32 9.24c.347 0 .643-.12.89-.36s.37-.533.37-.88-.123-.643-.37-.89a1.213 1.213 0 0 0-.89-.37c-.347 0-.64.123-.88.37a1.23 1.23 0 0 0-.36.89c0 .347.12.64.36.88s.533.36.88.36zM8 11.32V4.68h8.32v6.64H8zM15.5 13v.82c0 .453-.167.847-.5 1.18-.333.333-.727.5-1.18.5H2.18c-.467 0-.863-.167-1.19-.5a1.63 1.63 0 0 1-.49-1.18V2.18c0-.453.163-.847.49-1.18.327-.333.723-.5 1.19-.5h11.64c.453 0 .847.167 1.18.5.333.333.5.727.5 1.18V3H8c-.467 0-.863.167-1.19.5a1.63 1.63 0 0 0-.49 1.18v6.64c0 .453.163.847.49 1.18.327.333.723.5 1.19.5h7.5z"/>
</svg>
