<svg xmlns="http://www.w3.org/2000/svg" width="70" height="70" viewBox="0 0 70 70">
    <g fill="none" fill-rule="nonzero" transform="translate(-4 -6)">
        <circle cx="39" cy="41" r="34" stroke="#D7DF23" stroke-width="2"/>
        <g fill="#4A4A4A">
            <path d="M49.976 45.76c0-5.712-9.744-19.88-10.136-20.496-.28-.392-.84-.448-1.232-.168l-.168.168c-.448.616-10.136 14.784-10.136 20.496 0 5.992 4.872 10.864 10.864 10.864 5.992 0 10.808-4.872 10.808-10.864zm-10.024 9.072v-5.04l4.144-4.144c.336-.336.28-.896-.056-1.176-.336-.28-.84-.28-1.12 0l-2.968 2.968v-6.552l2.184-2.184c.336-.336.28-.896-.056-1.176-.336-.28-.84-.28-1.12 0l-1.008.952v-9.968c3.248 4.928 8.344 13.552 8.344 17.248 0 4.704-3.64 8.68-8.344 9.072zm-9.968-9.072c0-3.64 5.096-12.264 8.344-17.248v9.968l-1.008-1.008c-.336-.336-.896-.28-1.176.056-.28.336-.28.84 0 1.12l2.184 2.184v6.608l-2.968-2.912c-.336-.336-.896-.28-1.176.056-.28.336-.28.84 0 1.12l4.144 4.144v5.04c-4.76-.448-8.344-4.424-8.344-9.128zM20.072 40.72c0-3.64 1.008-7.168 2.968-10.248.224-.392.112-.896-.28-1.176-.392-.224-.896-.112-1.176.28-3.976 6.216-4.312 14.112-.952 20.664.224.392.728.56 1.12.336.392-.224.56-.728.336-1.12-1.288-2.688-2.016-5.656-2.016-8.736z"/>
            <path d="M49.976 56.4c-8.12 5.656-19.208 4.144-25.536-3.472a.774.774 0 0 0-1.176-.112c-.336.28-.392.84-.112 1.176 6.888 8.344 19.096 9.968 27.944 3.696l.728.896 1.4-3.808-3.976.672.728.952zM57.536 31.2c-.224-.392-.728-.56-1.12-.336-.392.224-.56.728-.336 1.12 3.248 6.328 2.744 13.944-1.4 19.768-.28.392-.224.896.168 1.176.392.28.896.224 1.176-.168l.056-.056c4.424-6.272 5.04-14.56 1.456-21.504zM39.112 20c-4.256 0-8.456 1.288-11.928 3.808l-.784-.896-1.4 3.752 3.976-.672-.728-.952c7.56-5.264 17.808-4.368 24.36 2.184.336.336.896.28 1.176-.056.28-.336.28-.84 0-1.12C49.92 22.184 44.6 20 39.112 20z"/>
        </g>
    </g>
</svg>
