<svg xmlns="http://www.w3.org/2000/svg" width="46" height="23" viewBox="0 0 46 23">
    <g fill="#8DC63F" fill-rule="evenodd">
        <path d="M23.008 4.191l-2.285 4.747-.41.84-6.094.898 4.414 4.414-.136.879-.899 5.273 5.41-2.89 5.41 2.89-.898-5.273-.137-.88 4.414-4.413-6.113-.899-2.676-5.586zm0-1.191c.287 0 .547.072.782.215.234.143.41.338.527.586l2.266 4.707 5.214.762c.26.039.495.143.704.312.208.17.358.384.449.645a1.405 1.405 0 0 1-.352 1.425l-3.808 3.809.879 5.293c.052.26.022.514-.088.762-.111.247-.277.449-.498.605-.13.091-.267.156-.41.195a1.627 1.627 0 0 1-.782.02 1.309 1.309 0 0 1-.351-.137l-4.532-2.441-4.55 2.441c-.105.065-.215.11-.332.137a1.616 1.616 0 0 1-.791-.02 1.456 1.456 0 0 1-.898-.8 1.232 1.232 0 0 1-.089-.762l.88-5.293-3.81-3.809a1.405 1.405 0 0 1-.352-1.426c.092-.247.242-.458.45-.634.209-.176.443-.283.703-.322l5.215-.762L21.7 3.8a1.35 1.35 0 0 1 .527-.586c.234-.143.495-.215.781-.215zM39.392.761l-1.46 3.031-.261.537-3.892.574 2.82 2.819-.088.561-.574 3.368 3.455-1.846 3.456 1.846-.574-3.368-.087-.561 2.82-2.82L41.1 4.33 39.392.76zm0-.761c.183 0 .35.046.5.137.15.092.261.216.336.374l1.447 3.007 3.331.486a.916.916 0 0 1 .736.612.897.897 0 0 1-.224.91L43.085 7.96l.561 3.38a.787.787 0 0 1-.056.487.93.93 0 0 1-.318.387.841.841 0 0 1-.262.125 1.039 1.039 0 0 1-.499.012.836.836 0 0 1-.224-.087l-2.895-1.56-2.906 1.56a.673.673 0 0 1-.212.087 1.032 1.032 0 0 1-.505-.012.93.93 0 0 1-.574-.511.787.787 0 0 1-.056-.487l.56-3.381-2.432-2.433a.897.897 0 0 1-.225-.91.956.956 0 0 1 .737-.612l3.33-.486L38.558.51a.863.863 0 0 1 .336-.374.938.938 0 0 1 .5-.137zM6.392.761l-1.46 3.031-.261.537-3.892.574 2.82 2.819-.088.561-.574 3.368 3.455-1.846 3.456 1.846-.574-3.368-.087-.561 2.82-2.82L8.1 4.33 6.392.76zm0-.761c.183 0 .35.046.5.137.15.092.261.216.336.374l1.447 3.007 3.331.486a.916.916 0 0 1 .736.612.897.897 0 0 1-.224.91L10.085 7.96l.561 3.38a.787.787 0 0 1-.056.487.93.93 0 0 1-.318.387.841.841 0 0 1-.262.125 1.039 1.039 0 0 1-.499.012.836.836 0 0 1-.224-.087l-2.895-1.56-2.906 1.56a.673.673 0 0 1-.212.087 1.032 1.032 0 0 1-.505-.012.93.93 0 0 1-.574-.511.787.787 0 0 1-.056-.487l.56-3.381L.268 5.526a.897.897 0 0 1-.225-.91.956.956 0 0 1 .737-.612l3.33-.486L5.558.51a.863.863 0 0 1 .336-.374.938.938 0 0 1 .5-.137z"/>
    </g>
</svg>
