<svg xmlns="http://www.w3.org/2000/svg" width="69" height="70" viewBox="0 0 69 70">
    <g fill="none" fill-rule="evenodd" transform="translate(-5 -6)">
        <circle cx="40" cy="41" r="34" stroke="#D7DF23" stroke-width="2"/>
        <path fill="#4A4A4A" d="M40.157 25c1.88 0 3.56.321 5.044.963 1.483.642 2.731 1.517 3.744 2.625a11.436 11.436 0 0 1 2.319 3.867c.532 1.47.798 3.023.798 4.659 0 1.656-.328 3.35-.986 5.078a31.87 31.87 0 0 1-2.491 5.094 46.45 46.45 0 0 1-3.259 4.737A89.843 89.843 0 0 1 42.036 56c0 .02-.156.16-.47.42a1.67 1.67 0 0 1-1.096.387h-.094c-.439 0-.81-.129-1.112-.388-.303-.259-.455-.398-.455-.42a645.377 645.377 0 0 1-3.524-4.068 46.399 46.399 0 0 1-3.51-4.644 30.345 30.345 0 0 1-2.694-5.016C28.36 40.55 28 38.833 28 37.114c0-1.636.324-3.19.971-4.66a12.603 12.603 0 0 1 2.632-3.866 12.445 12.445 0 0 1 3.87-2.625A11.594 11.594 0 0 1 40.157 25zm.376 29.663a71.533 71.533 0 0 0 4.167-5.156c1.19-1.636 2.182-3.184 2.976-4.643.794-1.46 1.39-2.837 1.786-4.132.397-1.294.595-2.5.595-3.618 0-1.263-.193-2.5-.58-3.712a9.281 9.281 0 0 0-1.8-3.246c-.816-.952-1.844-1.719-3.087-2.298-1.243-.58-2.72-.87-4.433-.87-1.379 0-2.684.27-3.917.807a10.377 10.377 0 0 0-3.227 2.19c-.919.922-1.65 1.999-2.193 3.23a9.56 9.56 0 0 0-.815 3.899c0 1.47.314 2.96.94 4.473a26.723 26.723 0 0 0 2.381 4.457 43.732 43.732 0 0 0 3.165 4.224 433.044 433.044 0 0 0 3.258 3.805l.533.59.125.124a.513.513 0 0 1 .079-.062c.03-.02.047-.041.047-.062zm-.47-23.668c1.67 0 3.09.585 4.26 1.755s1.755 2.573 1.755 4.208c0 1.657-.585 3.065-1.754 4.225-1.17 1.16-2.59 1.74-4.261 1.74-1.65 0-3.066-.58-4.246-1.74-1.18-1.16-1.77-2.568-1.77-4.225 0-1.635.59-3.038 1.77-4.208 1.18-1.17 2.595-1.755 4.246-1.755zm0 9.94c1.107 0 2.047-.394 2.82-1.181.772-.787 1.159-1.73 1.159-2.827s-.392-2.034-1.175-2.81c-.784-.777-1.729-1.165-2.836-1.165-1.107 0-2.052.388-2.835 1.164-.784.777-1.175 1.714-1.175 2.811 0 1.098.397 2.04 1.19 2.827.794.787 1.745 1.18 2.852 1.18z"/>
    </g>
</svg>
