<svg id="Layer_1" data-name="Layer 1" xmlns="http://www.w3.org/2000/svg" viewBox="0 0 281.34 281.08"><defs><style>.cls-1{fill:#fff;}</style></defs><title>logo_renova_branco</title><path class="cls-1" d="M140.67,48.8a91.74,91.74,0,1,1-91.74,91.74A91.75,91.75,0,0,1,140.67,48.8h0m0-2.9a94.64,94.64,0,1,0,94.64,94.64A94.64,94.64,0,0,0,140.67,45.9Z"/><path class="cls-1" d="M143.49,207.63l-29.72-29.72-4.72,4.71,32.07,32.08a3.32,3.32,0,0,0,4.7,0h0l34.4-34.4-4.72-4.71Z"/><path class="cls-1" d="M76.41,140.55l29.72-29.71-4.72-4.71L69.34,138.2a3.41,3.41,0,0,0,0,4.71l34.4,34.4,4.71-4.72Z"/><path class="cls-1" d="M143.49,73.48,173.2,103.2l4.71-4.71L145.84,66.41a3.32,3.32,0,0,0-4.7,0h0l-34.39,34.4,4.71,4.71Z"/><path class="cls-1" d="M210.56,140.55l-29.72,29.72,4.71,4.71,32.07-32.07a3.33,3.33,0,0,0,0-4.71h0l-34.35-34.4-4.72,4.72Z"/><path class="cls-1" d="M106.73,102.18a3.32,3.32,0,0,0,3.32,3.34h12.46V98.85H113.4V89.78h-6.67Z"/><path class="cls-1" d="M105.11,177.31a3.33,3.33,0,0,0,3.34-3.32h0V161.53h-6.67v9.11H92.71v6.67Z"/><path class="cls-1" d="M181.33,103.22a3.33,3.33,0,0,0-3.34,3.32h0v12.5h6.67v-9.11h9.07v-6.67Z"/><path class="cls-1" d="M180.24,178.47a3.34,3.34,0,0,0-3.33-3.34H164.46v6.67h9.12v9.07h6.67Z"/><path class="cls-1" d="M154.22,146.9a10.23,10.23,0,0,0-3.35-3.16,19.53,19.53,0,0,0,5.19-2.43,15.84,15.84,0,0,0,3.81-3.54,15,15,0,0,0,2.36-4.5,17.52,17.52,0,0,0-.38-11.67,12.62,12.62,0,0,0-3.76-5,18.6,18.6,0,0,0-6.6-3.25,34.69,34.69,0,0,0-9.68-1.16H125v55.09h10.25V145.72h4.42a5.1,5.1,0,0,1,2.31.42,4.08,4.08,0,0,1,1.42,1.41l11.62,17.64a4.22,4.22,0,0,0,3.84,2.06h9.22Zm-20-19.36-1.79-10c5.1-1.14,13.23-.19,16.54,3.12,3.87,3.87,4.25,8.4,1.69,13.22l-.09.18.19.1a6.45,6.45,0,0,0,2.18,1,11.44,11.44,0,0,0,2.54.29c-.38.46-.85.85-1.23,1.31-4.72.1-13.5-8.87-16.15-12.94l-.76-1c-.09,2.74,5.81,9.69,10.78,13.61-8.19,3.3-13-3-13.87-8.89Z"/><path class="cls-1" d="M140.67,226.68a86.16,86.16,0,1,1,86.16-86.16A86.15,86.15,0,0,1,140.67,226.68Zm0-171.13a85,85,0,1,0,85,85h0a85.09,85.09,0,0,0-85-85Z"/></svg>