<svg id="Layer_1" data-name="Layer 1" xmlns="http://www.w3.org/2000/svg" viewBox="0 0 685.44 374.74"><defs><style>.cls-1{fill:#fff;}</style></defs><title>logo_renova_branco</title><path class="cls-1" d="M290.57,191.22v24.09H279.1V153.65h18.8a39.54,39.54,0,0,1,10.81,1.3,20.72,20.72,0,0,1,7.38,3.65,14,14,0,0,1,4.22,5.61,19.73,19.73,0,0,1,.43,13.07,17.18,17.18,0,0,1-2.65,5,17.77,17.77,0,0,1-4.26,4,22.19,22.19,0,0,1-5.78,2.73,11.45,11.45,0,0,1,3.75,3.54l15.44,22.77H316.92a5.05,5.05,0,0,1-2.54-.6,5.2,5.2,0,0,1-1.77-1.7l-13-19.74a4.45,4.45,0,0,0-1.6-1.58,5.62,5.62,0,0,0-2.58-.47Zm0-8.23h7.16a17.73,17.73,0,0,0,5.65-.81,11,11,0,0,0,4-2.24,8.9,8.9,0,0,0,2.32-3.39,11.76,11.76,0,0,0,.77-4.31,8.76,8.76,0,0,0-3.09-7.2q-3.09-2.52-9.45-2.52h-7.33Z"/><path class="cls-1" d="M373.46,153.65v9.13H346.13v17.1h21.53v8.82H346.13v17.44h27.33v9.17H334.57V153.65Z"/><path class="cls-1" d="M390.69,153.72a2.76,2.76,0,0,1,1.7.81,8.86,8.86,0,0,1,.86,1l32.36,41.23c-.12-1-.19-2-.24-2.92s-.06-1.84-.06-2.67V153.65h10.11v61.66h-5.93a5.18,5.18,0,0,1-2.26-.43,5,5,0,0,1-1.75-1.53l-32.23-41.06c.08.91.14,1.81.19,2.7s.06,1.72.06,2.46v37.86H383.4V153.65h6A9.17,9.17,0,0,1,390.69,153.72Z"/><path class="cls-1" d="M507,184.48A34.32,34.32,0,0,1,504.75,197a29.88,29.88,0,0,1-6.36,10,28.76,28.76,0,0,1-9.85,6.59,35.68,35.68,0,0,1-25.52,0,29.12,29.12,0,0,1-9.89-6.59,29.6,29.6,0,0,1-6.37-10,36,36,0,0,1,0-25.12,29.46,29.46,0,0,1,6.37-10,29,29,0,0,1,9.89-6.59A33.39,33.39,0,0,1,475.8,153a32.93,32.93,0,0,1,12.74,2.39,29,29,0,0,1,9.85,6.59,29.55,29.55,0,0,1,6.36,10A34.36,34.36,0,0,1,507,184.48Zm-11.77,0a28.83,28.83,0,0,0-1.34-9.1,19.47,19.47,0,0,0-3.86-6.85,16.66,16.66,0,0,0-6.12-4.3,23,23,0,0,0-16.27,0,16.72,16.72,0,0,0-6.16,4.3,19.39,19.39,0,0,0-3.9,6.85,30.94,30.94,0,0,0,0,18.21,19.16,19.16,0,0,0,3.9,6.82,16.79,16.79,0,0,0,6.16,4.28,22.81,22.81,0,0,0,16.27,0,16.73,16.73,0,0,0,6.12-4.28,19.24,19.24,0,0,0,3.86-6.82A28.89,28.89,0,0,0,495.24,184.48Z"/><path class="cls-1" d="M507.6,153.65h9.26a3.9,3.9,0,0,1,2.43.73,4.45,4.45,0,0,1,1.4,1.87l14.5,37.61c.49,1.23.95,2.57,1.39,4s.86,3,1.26,4.63a52.19,52.19,0,0,1,2.43-8.66l14.45-37.61a4.47,4.47,0,0,1,1.37-1.79,3.67,3.67,0,0,1,2.43-.81h9.25l-24.9,61.66H532.51Z"/><path class="cls-1" d="M621.2,215.31h-8.87a3.85,3.85,0,0,1-2.45-.75,4.16,4.16,0,0,1-1.39-1.85l-4.6-12.58H578.34l-4.6,12.58a4.13,4.13,0,0,1-1.34,1.79,3.79,3.79,0,0,1-2.46.81H561l24.22-61.66H597ZM581.29,192h19.65l-7.5-20.51c-.34-.91-.72-2-1.13-3.22s-.82-2.58-1.22-4c-.4,1.45-.78,2.8-1.17,4s-.76,2.35-1.13,3.28Z"/><path class="cls-1" d="M158.88,95.63a91.74,91.74,0,1,1-91.74,91.74,91.75,91.75,0,0,1,91.74-91.74h0m0-2.9a94.64,94.64,0,1,0,94.64,94.64A94.64,94.64,0,0,0,158.88,92.73Z"/><path class="cls-1" d="M161.7,254.46,132,224.74l-4.72,4.71,32.08,32.08a3.31,3.31,0,0,0,4.69,0h0l34.4-34.4-4.72-4.71Z"/><path class="cls-1" d="M94.62,187.38l29.72-29.71L119.62,153,87.55,185a3.41,3.41,0,0,0,0,4.71l34.4,34.4,4.71-4.72Z"/><path class="cls-1" d="M161.7,120.31,191.41,150l4.71-4.71-32.07-32.08a3.32,3.32,0,0,0-4.7,0h0l-34.4,34.4,4.71,4.71Z"/><path class="cls-1" d="M228.77,187.38,199.05,217.1l4.71,4.72,32.07-32.08a3.32,3.32,0,0,0,0-4.71h0l-34.35-34.4-4.72,4.72Z"/><path class="cls-1" d="M124.94,149a3.32,3.32,0,0,0,3.32,3.33h12.46v-6.67h-9.11v-9.07h-6.67Z"/><path class="cls-1" d="M123.32,224.14a3.33,3.33,0,0,0,3.34-3.32h0V208.36H120v9.11h-9.07v6.67Z"/><path class="cls-1" d="M199.54,150.05a3.34,3.34,0,0,0-3.34,3.32h0v12.5h6.67v-9.11h9.07V150.1Z"/><path class="cls-1" d="M198.45,225.3a3.34,3.34,0,0,0-3.33-3.34H182.67v6.67h9.13v9.07h6.67Z"/><path class="cls-1" d="M172.43,193.73a10.13,10.13,0,0,0-3.35-3.16,19.81,19.81,0,0,0,5.19-2.42,16.08,16.08,0,0,0,3.81-3.55,14.8,14.8,0,0,0,2.36-4.5,17.52,17.52,0,0,0-.38-11.67,12.62,12.62,0,0,0-3.76-5,18.52,18.52,0,0,0-6.6-3.25A34.69,34.69,0,0,0,160,159H143.24v55.09h10.25V192.55h4.42a5.1,5.1,0,0,1,2.31.42,4.08,4.08,0,0,1,1.42,1.41L173.26,212a4.22,4.22,0,0,0,3.84,2.06h9.23Zm-20-19.36-1.79-10c5.1-1.14,13.23-.19,16.54,3.12,3.87,3.87,4.25,8.4,1.69,13.22l-.09.18.19.1a6.45,6.45,0,0,0,2.18,1,11.44,11.44,0,0,0,2.54.29c-.37.46-.85.85-1.23,1.31-4.72.1-13.5-8.87-16.15-12.94l-.76-1c-.09,2.74,5.81,9.69,10.78,13.61-8.19,3.3-13-3-13.87-8.89Z"/><path class="cls-1" d="M158.88,273.51A86.16,86.16,0,1,1,245,187.35,86.16,86.16,0,0,1,158.88,273.51Zm0-171.13a85,85,0,1,0,85,85h0a85.09,85.09,0,0,0-85-85Z"/></svg>