<svg xmlns="http://www.w3.org/2000/svg" width="154" height="52" viewBox="0 0 154 52">
    <defs>
        <linearGradient id="a" x1="31.212%" x2="81.053%" y1="16.343%" y2="105.662%">
            <stop offset="0%" stop-color="#D7DF23"/>
            <stop offset="100%" stop-color="#8DC63F"/>
        </linearGradient>
    </defs>
    <g fill="none" fill-rule="nonzero" transform="translate(-11 -11)">
        <ellipse cx="37.309" cy="37.055" fill="url(#a)" rx="26.117" ry="25.945"/>
        <g fill="#414042">
            <path d="M73.564 38.122v6.596h-3.168V27.832h5.18c1.156 0 2.148.11 2.975.355.826.247 1.515.575 2.038.986.524.438.91.93 1.157 1.532.248.602.358 1.26.358 1.97 0 .576-.082 1.096-.247 1.616a4.996 4.996 0 0 1-.717 1.368c-.33.41-.716.766-1.184 1.095a6.594 6.594 0 0 1-1.598.739c.385.219.744.547 1.047.958l4.242 6.24H80.81a1.35 1.35 0 0 1-.69-.165 1.597 1.597 0 0 1-.495-.465l-3.581-5.392c-.138-.191-.276-.355-.441-.437-.165-.083-.386-.137-.716-.137h-1.323v.027zm0-2.244h1.984c.606 0 1.102-.082 1.57-.22.44-.136.799-.355 1.102-.601a2.67 2.67 0 0 0 .634-.93 3.2 3.2 0 0 0 .22-1.178c0-.848-.275-1.505-.854-1.97-.578-.465-1.433-.684-2.59-.684h-2.01v5.583h-.056zM96.403 27.832v2.49h-7.521v4.68h5.923v2.409h-5.923V42.2h7.52v2.518H85.687V27.832zM101.141 27.859c.083 0 .165.027.248.082.083.027.138.082.22.164.083.055.138.164.248.274l8.926 11.276a8.244 8.244 0 0 1-.055-.794c0-.274-.027-.493-.027-.739V27.86h2.782v16.886h-1.653c-.248 0-.468-.027-.634-.11a1.3 1.3 0 0 1-.468-.41l-8.87-11.248c.027.246.027.492.054.739 0 .246.028.465.028.684v10.373h-2.783V27.886h1.653a.473.473 0 0 1 .331-.027zM133.18 36.261c0 1.232-.22 2.381-.633 3.448-.413 1.068-.992 1.971-1.763 2.737-.744.767-1.653 1.369-2.7 1.807-1.047.438-2.231.656-3.499.656-1.267 0-2.452-.218-3.526-.656a8.167 8.167 0 0 1-2.727-1.807 8.093 8.093 0 0 1-1.763-2.737 9.368 9.368 0 0 1-.634-3.448c0-1.232.22-2.381.634-3.448.413-1.068.991-1.97 1.763-2.737.743-.767 1.653-1.369 2.727-1.807 1.074-.437 2.232-.656 3.526-.656 1.295 0 2.452.219 3.5.656 1.046.438 1.955 1.04 2.699 1.807.744.766 1.322 1.67 1.763 2.737.44 1.067.634 2.216.634 3.448zm-3.25 0c0-.93-.11-1.752-.358-2.49-.248-.74-.606-1.369-1.075-1.862a4.55 4.55 0 0 0-1.68-1.176c-.661-.274-1.405-.41-2.232-.41-.826 0-1.57.136-2.231.41-.661.273-1.24.656-1.708 1.176a5.422 5.422 0 0 0-1.075 1.862 7.753 7.753 0 0 0-.385 2.49c0 .93.137 1.752.385 2.49.248.74.606 1.369 1.075 1.862.468.492 1.02.903 1.708 1.176.661.274 1.405.411 2.231.411.827 0 1.57-.137 2.232-.41a4.55 4.55 0 0 0 1.68-1.177 5.178 5.178 0 0 0 1.075-1.861c.248-.712.358-1.56.358-2.49zM133.346 27.832h2.562c.276 0 .496.054.661.191.166.137.303.301.386.52l3.995 10.29c.137.33.247.712.385 1.095.11.41.248.821.358 1.26.193-.904.414-1.697.662-2.382l3.994-10.29c.083-.192.193-.356.386-.493s.413-.219.661-.219h2.562l-6.86 16.887h-2.892l-6.86-16.86zM164.642 44.718h-2.452c-.276 0-.496-.055-.689-.192a1.233 1.233 0 0 1-.385-.52l-1.268-3.448h-7.025l-1.267 3.448c-.055.192-.193.356-.358.493a1.148 1.148 0 0 1-.689.219h-2.452l6.667-16.886h3.223l6.695 16.886zM153.65 38.34h5.427l-2.066-5.61c-.083-.247-.193-.548-.303-.876-.11-.329-.22-.712-.33-1.095-.111.383-.221.766-.331 1.122-.11.356-.22.63-.304.903l-2.093 5.556z"/>
        </g>
        <g fill="#FFF">
            <path d="M38.108 56.021l-8.457-8.402-1.35 1.341 9.119 9.059c.358.356.964.356 1.35 0l9.78-9.716-1.35-1.34-9.092 9.058zM19.044 37.082l8.458-8.402-1.35-1.341-9.119 9.059a.971.971 0 0 0 0 1.34l9.78 9.717 1.35-1.341-9.119-9.032zM38.108 18.116l8.458 8.402 1.35-1.341-9.119-9.06c-.358-.355-.964-.355-1.35 0l-9.78 9.717 1.35 1.34 9.091-9.058zM57.2 37.082l-8.458 8.375 1.35 1.34 9.12-9.058a.953.953 0 0 0 .275-.657.953.953 0 0 0-.276-.657l-9.78-9.716-1.35 1.342 9.119 9.031z"/>
            <path d="M27.667 26.217c0 .52.414.93.937.93h3.554V25.26h-2.59v-2.573h-1.9v3.53zM27.199 47.455c.523 0 .937-.41.937-.93v-3.531h-1.901v2.572h-2.562v1.889h3.526zM48.908 26.518a.926.926 0 0 0-.937.93v3.53h1.9v-2.572h2.59v-1.888h-3.553zM48.577 47.783c0-.52-.413-.93-.937-.93h-3.553v1.888h2.59v2.573h1.9v-3.53zM41.194 38.861c-.276-.383-.579-.684-.964-.903a5.522 5.522 0 0 0 1.46-.684c.44-.274.799-.63 1.074-1.013.303-.383.524-.794.661-1.259.166-.465.22-.958.22-1.478 0-.657-.11-1.259-.33-1.806-.22-.547-.578-1.013-1.074-1.423a5.44 5.44 0 0 0-1.874-.93c-.77-.22-1.68-.33-2.754-.33h-4.794v15.573h2.975v-6.075h1.24c.275 0 .496.027.661.11.138.081.276.218.413.41l3.306 4.98c.11.192.276.33.441.439.165.11.386.164.634.164h2.617l-3.912-5.775zm-5.703-5.474l-.523-2.819c1.46-.328 3.774-.054 4.71.876 1.103 1.095 1.213 2.381.497 3.75l-.028.054.055.028c.165.137.44.246.606.3.22.056.496.083.717.083-.11.137-.248.246-.359.383-1.35.027-3.857-2.518-4.6-3.667l-.22-.301c-.028.766 1.652 2.737 3.057 3.859-2.314.903-3.664-.904-3.912-2.546z"/>
        </g>
        <path fill="#8DC63F" d="M37.31 61.413c-13.527 0-24.52-10.92-24.52-24.358s10.993-24.358 24.52-24.358c13.526 0 24.518 10.92 24.518 24.358S50.836 61.413 37.31 61.413zm0-48.36c-13.334 0-24.189 10.783-24.189 24.03 0 13.245 10.855 24.001 24.188 24.001 13.334 0 24.189-10.783 24.189-24.03 0-13.246-10.855-24.001-24.189-24.001z"/>
    </g>
</svg>
