<svg xmlns="http://www.w3.org/2000/svg" width="70" height="70" viewBox="0 0 70 70">
    <g fill="none" fill-rule="evenodd" transform="translate(-5 -6)">
        <circle cx="40" cy="41" r="34" stroke="#D7DF23" stroke-width="2"/>
        <path d="M37.09 36.208c0 .04 0 .04.04.08v.039c0 .04 0 .04.042.08 0 .04 0 .04.042.079 0 .04 0 .04.041.08 0 .04.042.079.042.119 0 0 0 .04.042.04 0 .04.041.04.041.079l.042.04c0 .04.041.04.041.08l.042.039.042.04c0 .04.041.04.041.08 0 0 0 .039.042.039a3.26 3.26 0 0 0 2.162 1.272h.832a3.26 3.26 0 0 0 2.162-1.272l.042-.04c0-.04.041-.04.041-.08l.042-.04c0-.039.041-.039.041-.079l.042-.04s.042-.04.042-.079c0-.04.041-.04.041-.08 0 0 0-.04.042-.04 0-.039.041-.039.041-.079s.042-.08.042-.119c0 0 0-.04.042-.04 0-.04 0-.04.041-.08v-.039c0-.04 0-.04.042-.08.083-.278.124-.556.124-.834v-1.947h-6.487v1.907c0 .318.042.596.125.875zM45.073 36.208c0 .04 0 .04.042.08v.039c0 .04 0 .04.041.08 0 .04 0 .04.042.079 0 .04 0 .04.042.08 0 .04.041.079.041.119 0 0 0 .04.042.04 0 .04.041.04.041.079l.042.04c0 .04.042.04.042.08l.041.039.042.04c0 .04.041.04.041.08 0 0 0 .039.042.039a3.26 3.26 0 0 0 2.162 1.272h.832a3.26 3.26 0 0 0 2.162-1.272v-.04c0-.04.042-.04.042-.08l.041-.04c0-.039.042-.039.042-.079l.042-.04s.041-.04.041-.079c0-.04.042-.04.042-.08 0 0 0-.04.041-.04 0-.039.042-.039.042-.079s.042-.08.042-.119c0 0 0-.04.041-.04 0-.04 0-.04.042-.08v-.039c0-.04 0-.04.041-.08.083-.278.125-.556.125-.834v-1.947H44.95v1.907c0 .318.041.596.124.875zM23.158 38.235c.125.04.25.08.375.08h.041c.042 0 .125 0 .167.039h.873a3.26 3.26 0 0 0 2.162-1.272v-.04c0-.04.042-.04.042-.08l.041-.039c0-.04.042-.04.042-.08l.042-.04s.041-.039.041-.079.042-.04.042-.08c0 0 0-.039.041-.039 0-.04.042-.04.042-.08s.041-.079.041-.119c0 0 0-.04.042-.04 0-.04 0-.04.042-.079v-.04c0-.04 0-.04.041-.08.083-.277.125-.555.125-.834v-1.947h-6.404v1.947c0 1.153.665 2.146 1.663 2.663.042.04.084.04.167.08 0 0 .041 0 .041.04.042 0 .083.04.125.04 0 0 .042 0 .042.039 0 0 .083 0 .124.04zM36.133 31.836h22.58l-3.244-5.286H24.697l-3.119 5.286h6.57zM29.105 36.208c0 .04 0 .04.042.08v.039c0 .04 0 .04.041.08 0 .04 0 .04.042.079 0 .04 0 .04.041.08 0 .04.042.079.042.119 0 0 0 .04.041.04 0 .04.042.04.042.079l.042.04c0 .04.041.04.041.08l.042.039.041.04c0 .04.042.04.042.08 0 0 0 .039.042.039a3.26 3.26 0 0 0 2.162 1.272h.832a3.26 3.26 0 0 0 2.162-1.272v-.04c0-.04.042-.04.042-.08l.041-.04c0-.039.042-.039.042-.079l.041-.04s.042-.04.042-.079c0-.04.041-.04.041-.08 0 0 0-.04.042-.04 0-.039.042-.039.042-.079s.041-.08.041-.119c0 0 0-.04.042-.04 0-.04 0-.04.041-.08v-.039c0-.04 0-.04.042-.08.083-.278.125-.556.125-.834v-1.947H28.98v1.907c0 .318.042.596.125.875zM52.933 35.333c0 .279.041.596.124.875 0 .04 0 .04.042.08v.039c0 .04 0 .04.042.08 0 .04 0 .04.041.079 0 .04 0 .04.042.08 0 .04.041.079.041.119 0 0 0 .04.042.04 0 .04.042.04.042.079l.041.04c0 .04.042.04.042.08l.041.039.042.04c0 .04.041.04.041.08 0 0 0 .039.042.039a3.26 3.26 0 0 0 2.162 1.272H56.634c.041 0 .124 0 .166-.04.125-.04.25-.04.374-.08h.042c.041 0 .083-.04.166-.04h.042c.041-.04.125-.04.166-.079.042-.04.083-.04.125-.08.956-.516 1.622-1.51 1.622-2.662v-1.948h-6.404v1.868z"/>
        <path d="M57.008 39.864h-.042c-.083 0-.166.04-.208.04H55.885 55.47a4.795 4.795 0 0 1-3.243-1.868c0-.04-.042-.04-.042-.08s-.041-.04-.041-.08c0 .04-.042.04-.042.08s-.042.04-.042.08c-.748.993-1.912 1.67-3.243 1.868h-.374H47.984 47.568a4.795 4.795 0 0 1-3.243-1.868c0-.04-.042-.04-.042-.08s-.041-.04-.041-.08c0 .04-.042.04-.042.08s-.042.04-.042.08c-.748.993-1.912 1.67-3.243 1.868h-.374H40.083 39.667a4.795 4.795 0 0 1-3.243-1.868c0-.04-.042-.04-.042-.08s-.041-.04-.041-.08c0 .04-.042.04-.042.08s-.042.04-.042.08c-.748.993-1.912 1.67-3.243 1.868h-.374H32.182 31.766a4.795 4.795 0 0 1-3.243-1.868c0-.04-.042-.04-.042-.08s-.041-.04-.041-.08c0 .04-.042.04-.042.08s-.042.04-.042.08c-1.04.993-2.204 1.67-3.534 1.868h-.374H23.907h-.333c-.083 0-.124 0-.208-.04h-.041c-.083 0-.167-.04-.208-.04h-.042V54.41h3.41v-7.948c0-2.544 2.163-4.61 4.824-4.61s4.824 2.066 4.824 4.61v7.948h21.124V39.785c-.083.04-.166.04-.25.08z"/>
        <path fill="#4A4A4A" fill-rule="nonzero" d="M60.917 32.63v-.079-.04-.079-.04c0-.04 0-.04-.042-.08 0-.039-.041-.039-.041-.079l-4.159-6.836c-.166-.238-.416-.397-.707-.397H24.24c-.291 0-.583.159-.707.397l-4.076 6.836c-.041.04-.041.08-.041.08 0 .04 0 .04-.042.08v2.94c0 1.55.832 2.941 2.038 3.776v16.056c0 .438.374.795.832.795h35.845c.458 0 .832-.357.832-.795V39.07c1.206-.834 2.037-2.186 2.037-3.736l-.041-2.702zm-36.22-6.08h30.772l3.202 5.286H21.58l3.118-5.286zm26.614 6.836v1.947c0 .279-.042.596-.125.835 0 .04 0 .04-.041.08v.04c0 .039 0 .039-.042.079 0 0 0 .04-.042.04 0 .04-.041.079-.041.119 0 .04-.042.04-.042.08 0 0 0 .039-.041.039 0 .04-.042.04-.042.08s-.042.04-.042.079l-.041.04c0 .04-.042.04-.042.08l-.041.039c0 .04-.042.04-.042.08v.04a3.26 3.26 0 0 1-2.162 1.27H47.735h-.042a3.26 3.26 0 0 1-2.162-1.27s0-.04-.042-.04c0-.04-.041-.04-.041-.08l-.042-.04-.042-.04c0-.04-.041-.04-.041-.08l-.042-.039c0-.04-.041-.04-.041-.08 0 0 0-.04-.042-.04 0-.039-.042-.079-.042-.118 0 0 0-.04-.041-.08 0-.04 0-.04-.042-.08 0-.04 0-.04-.041-.079v-.04c0-.04 0-.04-.042-.08a2.971 2.971 0 0 1-.125-.873v-1.948h6.446v.04zm-7.984 0v1.947c0 .279-.042.596-.125.835 0 .04 0 .04-.042.08v.04c0 .039 0 .039-.041.079 0 0 0 .04-.042.04 0 .04-.041.079-.041.119 0 .04-.042.04-.042.08 0 0 0 .039-.042.039 0 .04-.041.04-.041.08s-.042.04-.042.079l-.041.04c0 .04-.042.04-.042.08l-.041.039c0 .04-.042.04-.042.08l-.042.04a3.26 3.26 0 0 1-2.162 1.27H39.709h-.042a3.26 3.26 0 0 1-2.162-1.27s0-.04-.042-.04c0-.04-.041-.04-.041-.08l-.042-.04-.041-.04c0-.04-.042-.04-.042-.08l-.042-.039c0-.04-.041-.04-.041-.08 0 0 0-.04-.042-.04 0-.039-.041-.079-.041-.118 0 0 0-.04-.042-.08 0-.04 0-.04-.041-.08 0-.04 0-.04-.042-.079v-.04c0-.04 0-.04-.042-.08a2.971 2.971 0 0 1-.124-.873v-1.948h6.487v.04zm-7.984 0v1.947c0 .279-.042.596-.125.835 0 .04 0 .04-.042.08v.04c0 .039 0 .039-.041.079 0 0 0 .04-.042.04 0 .04-.042.079-.042.119 0 .04-.041.04-.041.08 0 0 0 .039-.042.039 0 .04-.041.04-.041.08s-.042.04-.042.079l-.041.04c0 .04-.042.04-.042.08l-.042.039c0 .04-.041.04-.041.08v.04a3.26 3.26 0 0 1-2.163 1.27H31.766h-.041a3.26 3.26 0 0 1-2.163-1.27s0-.04-.041-.04c0-.04-.042-.04-.042-.08l-.041-.04-.042-.04c0-.04-.042-.04-.042-.08l-.041-.039c0-.04-.042-.04-.042-.08 0 0 0-.04-.041-.04 0-.039-.042-.079-.042-.118 0 0 0-.04-.041-.08 0-.04 0-.04-.042-.08 0-.04 0-.04-.042-.079v-.04c0-.04 0-.04-.041-.08 0-.238-.042-.516-.042-.834v-1.947h6.363zm-12.393 4.77c-.041 0-.083-.04-.124-.04 0 0-.042 0-.042-.04-.041-.04-.083-.04-.166-.08-.998-.517-1.664-1.51-1.664-2.663v-1.947h6.363v1.947c0 .279-.042.596-.125.835 0 .04 0 .04-.042.08v.04c0 .039 0 .039-.041.079 0 0 0 .04-.042.04 0 .04-.041.079-.041.119 0 .04-.042.04-.042.08 0 0 0 .039-.041.039 0 .04-.042.04-.042.08s-.042.04-.042.079l-.041.04c0 .04-.042.04-.042.08l-.041.039c0 .04-.042.04-.042.08v.04a3.26 3.26 0 0 1-2.162 1.27h-.624H23.699h-.042c-.041 0-.124 0-.166-.039h-.041c-.125-.04-.25-.04-.375-.08h-.041c-.042 0-.084-.04-.125-.04.083-.039.083-.039.041-.039zM34.51 54.37H28.15v-7.95c0-1.668 1.413-3.02 3.16-3.02 1.746 0 3.16 1.352 3.16 3.02v7.95h.042zm22.747 0H36.133v-7.95c0-2.543-2.163-4.61-4.824-4.61s-4.824 2.067-4.824 4.61v7.95h-3.451V39.785h.041c.083 0 .167.04.208.04h.042c.083 0 .125.04.208.04H24.78a4.795 4.795 0 0 0 3.244-1.869c0-.04.041-.04.041-.08s.042-.04.042-.079c0 .04.042.04.042.08s.041.04.041.08c.749.993 1.913 1.668 3.244 1.867H32.68a4.795 4.795 0 0 0 3.244-1.868c0-.04.041-.04.041-.08s.042-.04.042-.079c0 .04.042.04.042.08s.041.04.041.08c.749.993 1.913 1.668 3.244 1.867H40.582a4.795 4.795 0 0 0 3.244-1.868c0-.04.041-.04.041-.08s.042-.04.042-.079c0 .04.041.04.041.08s.042.04.042.08c.749.993 1.913 1.668 3.244 1.867H48.483a4.795 4.795 0 0 0 3.244-1.868c0-.04.041-.04.041-.08s.042-.04.042-.079c0 .04.041.04.041.08s.042.04.042.08c.749.993 1.913 1.668 3.244 1.867h1.289c.083 0 .166 0 .208-.04h.041c.083 0 .167-.04.25-.04v14.587h.332zm2.038-19.038c0 1.153-.665 2.146-1.622 2.663-.041.04-.083.04-.124.08-.042.04-.125.04-.167.08h-.041c-.042 0-.084.039-.167.039h-.041c-.125.04-.25.08-.375.08-.041 0-.124 0-.166.04H56.384h-.624-.041a3.26 3.26 0 0 1-2.163-1.273s0-.04-.041-.04c0-.04-.042-.04-.042-.079l-.041-.04-.042-.04c0-.04-.041-.04-.041-.079l-.042-.04c0-.04-.042-.04-.042-.08 0 0 0-.039-.041-.039 0-.04-.042-.08-.042-.12 0 0 0-.039-.041-.079 0-.04 0-.04-.042-.08 0-.039 0-.039-.042-.079v-.04c0-.04 0-.04-.041-.079a2.971 2.971 0 0 1-.125-.874v-1.948h6.362v2.027h.042z"/>
        <path fill="#4A4A4A" fill-rule="nonzero" d="M53.473 41.851H40.166c-.457 0-.831.358-.831.795v8.068c0 .437.374.795.831.795h13.307c.458 0 .832-.358.832-.795v-8.108a.81.81 0 0 0-.832-.755zm-.831 8.068H40.956v-6.518h11.686v6.518z"/>
    </g>
</svg>
