<svg xmlns="http://www.w3.org/2000/svg" width="18" height="17" viewBox="0 0 18 17">
    <path fill="#FFF" fill-rule="evenodd" d="M15.68 10.68v-5h-4.26l1.76 2.34-1.36.98-1.42-1.92A324.53 324.53 0 0 1 9 5.18c-.36.493-.827 1.127-1.4 1.9L6.18 9l-1.36-.98 1.76-2.34H2.32v5h13.36zm0 4.14v-1.64H2.32v1.64h13.36zM6.5 2.32a.775.775 0 0 0-.58.25.848.848 0 0 0-.24.61c0 .24.08.437.24.59.16.153.353.23.58.23a.79.79 0 0 0 .58-.24.79.79 0 0 0 .24-.58.858.858 0 0 0-.24-.6.76.76 0 0 0-.58-.26zm5 0a.775.775 0 0 0-.58.25.848.848 0 0 0-.24.61c0 .24.08.437.24.59.16.153.353.23.58.23a.79.79 0 0 0 .58-.24.79.79 0 0 0 .24-.58.858.858 0 0 0-.24-.6.76.76 0 0 0-.58-.26zM15.68 4c.467 0 .857.163 1.17.49.313.327.47.723.47 1.19v9.14c0 .467-.157.863-.47 1.19-.313.327-.703.49-1.17.49H2.32c-.467 0-.857-.163-1.17-.49a1.656 1.656 0 0 1-.47-1.19V5.68c0-.467.157-.863.47-1.19.313-.327.703-.49 1.17-.49h1.84C4.053 3.627 4 3.353 4 3.18c0-.44.113-.853.34-1.24.227-.387.533-.693.92-.92.387-.227.797-.34 1.23-.34.433 0 .83.097 1.19.29.36.193.66.463.9.81l.42.58.44-.58c.227-.347.52-.617.88-.81.36-.193.757-.29 1.19-.29.433 0 .843.113 1.23.34.387.227.693.533.92.92.227.387.34.8.34 1.24 0 .173-.053.447-.16.82h1.84z"/>
</svg>
