<svg xmlns="http://www.w3.org/2000/svg" width="18" height="18" viewBox="0 0 18 18">
    <path fill="#FFF" fill-rule="evenodd" d="M9 15.02a5.706 5.706 0 0 0 2.86-.76A5.972 5.972 0 0 0 14 12.32c-.013-.507-.327-.973-.94-1.4-.533-.36-1.213-.653-2.04-.88-.747-.2-1.423-.3-2.03-.3-.607 0-1.283.1-2.03.3-.827.227-1.5.52-2.02.88-.613.427-.927.893-.94 1.4a5.972 5.972 0 0 0 2.14 1.94c.907.507 1.86.76 2.86.76zM9 3.18c-.44 0-.853.113-1.24.34a2.536 2.536 0 0 0-.92.92c-.227.387-.34.8-.34 1.24 0 .44.113.853.34 1.24.227.387.533.693.92.92.387.227.8.34 1.24.34.44 0 .853-.113 1.24-.34.387-.227.693-.533.92-.92.227-.387.34-.8.34-1.24 0-.44-.113-.853-.34-1.24a2.536 2.536 0 0 0-.92-.92c-.387-.227-.8-.34-1.24-.34zm0-2.5c1.52 0 2.927.38 4.22 1.14a7.886 7.886 0 0 1 2.96 2.96A8.182 8.182 0 0 1 17.32 9c0 1.52-.38 2.927-1.14 4.22a7.886 7.886 0 0 1-2.96 2.96A8.182 8.182 0 0 1 9 17.32c-1.52 0-2.927-.38-4.22-1.14a8.035 8.035 0 0 1-2.96-2.98A8.146 8.146 0 0 1 .68 9c0-1.507.38-2.907 1.14-4.2A8.188 8.188 0 0 1 4.8 1.82 8.146 8.146 0 0 1 9 .68z"/>
</svg>
